<svg width="56" height="56" viewBox="0 0 56 56" fill="none" xmlns="http://www.w3.org/2000/svg">
<path d="M24.7333 9.68323V13.9998H21.28C17.5233 13.9998 15.6334 15.8898 15.6334 19.6465V41.9998H9.6834C6.34673 41.9998 4.66667 40.3198 4.66667 36.9831V9.68323C4.66667 6.34656 6.34673 4.6665 9.6834 4.6665H19.7167C23.0534 4.6665 24.7333 6.34656 24.7333 9.68323Z" fill="#066899"/>
<path opacity="0.4" d="M40.53 19.6466V45.6867C40.53 49.4434 38.6634 51.3333 34.9067 51.3333H21.28C17.5233 51.3333 15.6334 49.4434 15.6334 45.6867V19.6466C15.6334 15.89 17.5233 14 21.28 14H34.9067C38.6634 14 40.53 15.89 40.53 19.6466Z" fill="#066899"/>
<path d="M51.3333 9.68323V36.9831C51.3333 40.3198 49.6533 41.9998 46.3166 41.9998H40.53V19.6465C40.53 15.8898 38.6634 13.9998 34.9067 13.9998H31.2667V9.68323C31.2667 6.34656 32.9466 4.6665 36.2833 4.6665H46.3166C49.6533 4.6665 51.3333 6.34656 51.3333 9.68323Z" fill="#066899"/>
<path d="M32.6667 27.4165H23.3333C22.3767 27.4165 21.5833 26.6232 21.5833 25.6665C21.5833 24.7098 22.3767 23.9165 23.3333 23.9165H32.6667C33.6233 23.9165 34.4167 24.7098 34.4167 25.6665C34.4167 26.6232 33.6233 27.4165 32.6667 27.4165Z" fill="#066899"/>
<path d="M32.6667 34.4165H23.3333C22.3767 34.4165 21.5833 33.6232 21.5833 32.6665C21.5833 31.7098 22.3767 30.9165 23.3333 30.9165H32.6667C33.6233 30.9165 34.4167 31.7098 34.4167 32.6665C34.4167 33.6232 33.6233 34.4165 32.6667 34.4165Z" fill="#066899"/>
<path d="M29.75 44.3335V51.3335H26.25V44.3335C26.25 43.3768 27.0433 42.5835 28 42.5835C28.9567 42.5835 29.75 43.3768 29.75 44.3335Z" fill="#066899"/>
</svg>
