<svg width="110" height="110" viewBox="0 0 110 110" fill="none" xmlns="http://www.w3.org/2000/svg">
<path d="M27.61 32.4706C24.7271 34.1705 21.3232 34.7605 18.0364 34.1301C14.7496 33.4998 11.8056 31.6923 9.75607 29.0466C7.70659 26.4008 6.69242 23.0984 6.90365 19.7584C7.11489 16.4183 8.53704 13.27 10.9035 10.9035C13.27 8.53704 16.4183 7.11489 19.7584 6.90365C23.0984 6.69242 26.4008 7.70659 29.0466 9.75607C31.6923 11.8056 33.4998 14.7496 34.1301 18.0364C34.7605 21.3232 34.1705 24.7271 32.4706 27.61L48.015 43.1475C50.1321 41.9025 52.544 41.2473 55 41.25C57.5438 41.25 59.9362 41.9444 61.985 43.1544L77.5225 27.61C75.8227 24.7271 75.2326 21.3232 75.863 18.0364C76.4933 14.7496 78.3008 11.8056 80.9466 9.75607C83.5923 7.70659 86.8947 6.69242 90.2348 6.90365C93.5748 7.11489 96.7231 8.53704 99.0896 10.9035C101.456 13.27 102.878 16.4183 103.089 19.7584C103.301 23.0984 102.287 26.4008 100.237 29.0466C98.1876 31.6923 95.2435 33.4998 91.9567 34.1301C88.6699 34.7605 85.266 34.1705 82.3831 32.4706L66.8456 48.015C68.1007 50.1288 68.7631 52.5417 68.7631 55C68.7631 57.4583 68.1007 59.8712 66.8456 61.985L82.39 77.5225C85.2729 75.8227 88.6768 75.2326 91.9636 75.863C95.2504 76.4933 98.1945 78.3008 100.244 80.9466C102.293 83.5923 103.308 86.8947 103.096 90.2348C102.885 93.5748 101.463 96.7231 99.0965 99.0896C96.73 101.456 93.5817 102.878 90.2416 103.089C86.9016 103.301 83.5992 102.287 80.9534 100.237C78.3077 98.1876 76.5002 95.2435 75.8699 91.9567C75.2395 88.6699 75.8296 85.266 77.5294 82.3831L61.985 66.8456C59.8686 68.093 57.4566 68.7506 55 68.75C52.5434 68.7506 50.1314 68.093 48.015 66.8456L32.4775 82.39C34.1773 85.2729 34.7674 88.6768 34.137 91.9636C33.5067 95.2504 31.6992 98.1945 29.0534 100.244C26.4077 102.293 23.1053 103.308 19.7652 103.096C16.4252 102.885 13.2769 101.463 10.9104 99.0965C8.54392 96.73 7.12177 93.5817 6.91053 90.2416C6.69929 86.9016 7.71347 83.5992 9.76295 80.9534C11.8124 78.3077 14.7565 76.5002 18.0433 75.8699C21.3301 75.2395 24.734 75.8296 27.6169 77.5294L43.1544 61.985C41.907 59.8686 41.2494 57.4566 41.25 55C41.25 52.4563 41.9444 50.0638 43.1544 48.015L27.61 32.4706Z" fill="#D1D5DB"/>
</svg>
