<svg width="56" height="56" viewBox="0 0 56 56" fill="none" xmlns="http://www.w3.org/2000/svg">
<path opacity="0.4" d="M46.6668 21V27.8133L44.8468 26.7633C43.3535 25.9 41.4868 26.1566 40.2735 27.3233C40.0168 27.5566 39.8068 27.8366 39.6202 28.14L39.4802 28.3966C39.2235 28.84 39.0135 28.9566 38.9902 28.98C38.9435 28.9566 38.7102 28.84 38.4535 28.3733L38.3135 28.14C37.8002 27.2533 36.9835 26.6466 36.0035 26.39C35.0002 26.11 33.9735 26.25 33.1102 26.7633L30.9868 28C30.0302 28.5366 29.3535 29.4233 29.0735 30.4733C28.7935 31.5466 28.9335 32.6433 29.4702 33.6C29.7268 34.02 29.7268 34.2766 29.7268 34.3233C29.7035 34.3466 29.4702 34.4866 28.9568 34.4866C26.6935 34.4866 24.8502 36.33 24.8502 38.57V40.7633C24.8502 43.0033 26.6935 44.8466 28.9568 44.8466C29.4702 44.8466 29.7035 44.9866 29.7035 45.01C29.7268 45.0333 29.7268 45.3133 29.4702 45.7333C29.3068 46.0366 29.1668 46.34 29.0968 46.6666H21.0002C14.5602 46.6666 9.3335 41.44 9.3335 35V21C9.3335 14.56 14.5602 9.33331 21.0002 9.33331H35.0002C41.4402 9.33331 46.6668 14.56 46.6668 21Z" fill="#066899"/>
<path d="M40.2732 22.7267V27.3234C40.0166 27.5567 39.8066 27.8367 39.6199 28.14L39.4799 28.3967C39.2232 28.84 39.0132 28.9567 38.9899 28.98C38.9432 28.9567 38.7099 28.84 38.4532 28.3734L38.3132 28.14C37.7999 27.2534 36.9832 26.6467 36.0032 26.39C34.9999 26.11 33.9732 26.25 33.1099 26.7634L30.9866 28C30.0299 28.5367 29.3532 29.4234 29.0732 30.4734C28.7932 31.5467 28.9332 32.6434 29.4699 33.6C29.7266 34.02 29.7266 34.2767 29.7266 34.3234C29.7032 34.3467 29.4699 34.4867 28.9566 34.4867C26.6932 34.4867 24.8499 36.33 24.8499 38.57V40.2734H22.7266C18.8766 40.2734 15.7266 37.1234 15.7266 33.2734V22.7267C15.7266 18.8767 18.8766 15.7267 22.7266 15.7267H33.2732C37.1232 15.7267 40.2732 18.8767 40.2732 22.7267Z" fill="#066899"/>
<path d="M21.1401 6.41669V9.33335H21.0001C19.8335 9.33335 18.7135 9.49669 17.6401 9.82335V6.41669C17.6401 5.46002 18.4101 4.66669 19.3901 4.66669C20.3468 4.66669 21.1401 5.46002 21.1401 6.41669Z" fill="#066899"/>
<path d="M29.75 6.41669V9.33335H26.25V6.41669C26.25 5.46002 27.0433 4.66669 28 4.66669C28.9567 4.66669 29.75 5.46002 29.75 6.41669Z" fill="#066899"/>
<path d="M38.3833 6.41669V9.82335C37.31 9.49669 36.1666 9.33335 35 9.33335H34.8833V6.41669C34.8833 5.46002 35.6766 4.66669 36.6333 4.66669C37.59 4.66669 38.3833 5.46002 38.3833 6.41669Z" fill="#066899"/>
<path d="M51.3334 19.3666C51.3334 20.3466 50.5634 21.1166 49.5834 21.1166H46.6668V21C46.6668 19.8333 46.5034 18.69 46.1768 17.6166H49.5834C50.5634 17.6166 51.3334 18.41 51.3334 19.3666Z" fill="#066899"/>
<path d="M21.1401 46.6667V49.5834C21.1401 50.54 20.3468 51.3334 19.3901 51.3334C18.4101 51.3334 17.6401 50.54 17.6401 49.5834V46.1767C18.7135 46.5034 19.8335 46.6667 21.0001 46.6667H21.1401Z" fill="#066899"/>
<path d="M9.82317 17.6166C9.4965 18.69 9.33317 19.8333 9.33317 21V21.1166H6.4165C5.45984 21.1166 4.6665 20.3466 4.6665 19.3666C4.6665 18.41 5.45984 17.6166 6.4165 17.6166H9.82317V17.6166Z" fill="#066899"/>
<path d="M9.33317 26.25V29.75H6.4165C5.45984 29.75 4.6665 28.9567 4.6665 28C4.6665 27.02 5.45984 26.25 6.4165 26.25H9.33317Z" fill="#066899"/>
<path d="M9.82317 38.3833H6.4165C5.45984 38.3833 4.6665 37.59 4.6665 36.6333C4.6665 35.6533 5.45984 34.8833 6.4165 34.8833H9.33317V35C9.33317 36.1666 9.4965 37.31 9.82317 38.3833Z" fill="#066899"/>
<path opacity="0.4" d="M48.9768 36.2367C47.3901 36.2367 46.4801 35.4433 46.4801 34.2767C46.4801 33.81 46.6201 33.2733 46.9468 32.7133C47.6001 31.5933 47.2034 30.1467 46.0834 29.5167L43.9601 28.28C42.9801 27.6967 41.7201 28.0467 41.1368 29.0267L40.9968 29.26C39.8768 31.1967 38.0568 31.1967 36.9368 29.26L36.7968 29.0267C36.2368 28.0467 34.9534 27.6967 33.9968 28.28L31.8501 29.5167C31.1034 29.9367 30.6601 30.73 30.6601 31.5467C30.6601 31.9433 30.7768 32.34 30.9868 32.7133C31.3134 33.2733 31.4768 33.81 31.4768 34.2767C31.4768 35.4433 30.5434 36.2367 28.9568 36.2367C27.6734 36.2367 26.6001 37.2867 26.6001 38.57V40.7633C26.6001 42.0467 27.6734 43.0967 28.9568 43.0967C30.5434 43.0967 31.4768 43.89 31.4768 45.0567C31.4768 45.5233 31.3134 46.06 30.9868 46.62C30.3334 47.74 30.7301 49.1867 31.8501 49.8167L33.9968 51.0533C34.9534 51.6367 36.2368 51.2867 36.7968 50.3067L36.9368 50.0733C38.0568 48.1367 39.8768 48.1367 40.9968 50.0733L41.1368 50.3067C41.7201 51.2867 42.9801 51.6367 43.9601 51.0533L46.0834 49.8167C46.8301 49.3967 47.2734 48.6033 47.2734 47.7867C47.2734 47.39 47.1568 46.9933 46.9468 46.62C46.6201 46.06 46.4801 45.5233 46.4801 45.0567C46.4801 43.89 47.3901 43.0967 48.9768 43.0967C50.2834 43.0967 51.3334 42.0467 51.3334 40.7633V38.57C51.3334 37.2867 50.2834 36.2367 48.9768 36.2367ZM38.9668 43.68C36.7501 43.68 34.9534 41.8833 34.9534 39.6667C34.9534 37.45 36.7501 35.6533 38.9668 35.6533C41.1834 35.6533 42.9801 37.45 42.9801 39.6667C42.9801 41.8833 41.1834 43.68 38.9668 43.68Z" fill="#066899"/>
<path d="M42.9798 39.6667C42.9798 41.8833 41.1831 43.68 38.9665 43.68C36.7498 43.68 34.9531 41.8833 34.9531 39.6667C34.9531 37.45 36.7498 35.6533 38.9665 35.6533C41.1831 35.6533 42.9798 37.45 42.9798 39.6667Z" fill="#066899"/>
</svg>
