<svg width="56" height="56" viewBox="0 0 56 56" fill="none" xmlns="http://www.w3.org/2000/svg">
<path opacity="0.4" d="M28 51.3332C40.8866 51.3332 51.3333 40.8865 51.3333 27.9998C51.3333 15.1132 40.8866 4.6665 28 4.6665C15.1133 4.6665 4.66663 15.1132 4.66663 27.9998C4.66663 40.8865 15.1133 51.3332 28 51.3332Z" fill="#066899"/>
<path d="M20.2534 27.7902L24.1033 28.747L21.8867 37.7069C21.3734 39.8069 22.4 40.507 24.1733 39.2703L36.2601 30.8936C37.7301 29.8669 37.52 28.6769 35.77 28.2335L31.92 27.2769L34.1367 18.3169C34.65 16.2169 33.6234 15.5169 31.85 16.7536L19.7634 25.1303C18.2934 26.157 18.5034 27.3469 20.2534 27.7902Z" fill="#066899"/>
</svg>
