<svg width="40" height="40" viewBox="0 0 40 40" fill="none" xmlns="http://www.w3.org/2000/svg">
<path d="M6.66667 15.5557C5.32069 15.5554 4.00616 15.9626 2.896 16.7237C3.56919 12.6736 5.65773 8.99381 8.78983 6.33935C11.9219 3.68488 15.8944 2.22798 20 2.22798C24.1056 2.22798 28.0781 3.68488 31.2102 6.33935C34.3423 8.99381 36.4308 12.6736 37.104 16.7237C35.9938 15.9626 34.6793 15.5554 33.3333 15.5557C32.2725 15.5557 31.2551 15.9771 30.5049 16.7272C29.7548 17.4774 29.3333 18.4948 29.3333 19.5557V30.2223C29.333 31.0241 29.5736 31.8074 30.0239 32.4707C30.4742 33.1341 31.1134 33.6468 31.8587 33.9423C31.6276 34.7887 31.1248 35.5356 30.4275 36.0681C29.7303 36.6005 28.8773 36.889 28 36.889H21.3333V39.5557H28C29.5564 39.5559 31.0638 39.0115 32.2609 38.017C33.4581 37.0224 34.2695 35.6404 34.5547 34.1103C36.0847 33.8252 37.4668 33.0137 38.4613 31.8166C39.4558 30.6194 40.0002 29.112 40 27.5557V19.5557C40 14.2513 37.8929 9.16426 34.1421 5.41353C30.3914 1.6628 25.3043 -0.444336 20 -0.444336C14.6957 -0.444336 9.60859 1.6628 5.85786 5.41353C2.10714 9.16426 0 14.2513 0 19.5557L0 27.5557C0 29.3238 0.702379 31.0195 1.95262 32.2697C3.20286 33.52 4.89856 34.2223 6.66667 34.2223C7.72753 34.2223 8.74495 33.8009 9.49509 33.0508C10.2452 32.3006 10.6667 31.2832 10.6667 30.2223V19.5557C10.6667 18.4948 10.2452 17.4774 9.49509 16.7272C8.74495 15.9771 7.72753 15.5557 6.66667 15.5557Z" fill="#F9FAFB"/>
</svg>
