<svg width="40" height="40" viewBox="0 0 40 40" fill="none" xmlns="http://www.w3.org/2000/svg">
<path d="M26.9833 3.3335H13.0167C6.94999 3.3335 3.33333 6.95016 3.33333 13.0168V26.9668C3.33333 33.0502 6.94999 36.6668 13.0167 36.6668H26.9667C33.0333 36.6668 36.65 33.0502 36.65 26.9835V13.0168C36.6667 6.95016 33.05 3.3335 26.9833 3.3335ZM20 26.4668C16.4333 26.4668 13.5333 23.5668 13.5333 20.0002C13.5333 16.4335 16.4333 13.5335 20 13.5335C23.5667 13.5335 26.4667 16.4335 26.4667 20.0002C26.4667 23.5668 23.5667 26.4668 20 26.4668ZM29.8667 11.4668C29.7833 11.6668 29.6667 11.8502 29.5167 12.0168C29.35 12.1668 29.1667 12.2835 28.9667 12.3668C28.7667 12.4502 28.55 12.5002 28.3333 12.5002C27.8833 12.5002 27.4667 12.3335 27.15 12.0168C27 11.8502 26.8833 11.6668 26.8 11.4668C26.7167 11.2668 26.6667 11.0502 26.6667 10.8335C26.6667 10.6168 26.7167 10.4002 26.8 10.2002C26.8833 9.9835 27 9.81683 27.15 9.65016C27.5333 9.26683 28.1167 9.0835 28.65 9.20016C28.7667 9.21683 28.8667 9.25016 28.9667 9.30016C29.0667 9.3335 29.1667 9.3835 29.2667 9.45016C29.35 9.50016 29.4333 9.5835 29.5167 9.65016C29.6667 9.81683 29.7833 9.9835 29.8667 10.2002C29.95 10.4002 30 10.6168 30 10.8335C30 11.0502 29.95 11.2668 29.8667 11.4668Z" fill="#077AB2"/>
</svg>
