<svg width="32" height="32" viewBox="0 0 32 32" fill="none" xmlns="http://www.w3.org/2000/svg">
<path d="M16 23.1333C17.2003 23.1333 18.1733 22.1603 18.1733 20.96C18.1733 19.7597 17.2003 18.7866 16 18.7866C14.7997 18.7866 13.8267 19.7597 13.8267 20.96C13.8267 22.1603 14.7997 23.1333 16 23.1333Z" fill="#077AB2"/>
<path d="M24.3733 12.7065V11.0398C24.3733 7.43984 23.5066 2.6665 16 2.6665C8.49329 2.6665 7.62663 7.43984 7.62663 11.0398V12.7065C3.89329 13.1732 2.66663 15.0665 2.66663 19.7198V22.1998C2.66663 27.6665 4.33329 29.3332 9.79996 29.3332H22.2C27.6666 29.3332 29.3333 27.6665 29.3333 22.1998V19.7198C29.3333 15.0665 28.1066 13.1732 24.3733 12.7065ZM16 24.9865C13.7733 24.9865 11.9733 23.1732 11.9733 20.9598C11.9733 18.7332 13.7866 16.9332 16 16.9332C18.2133 16.9332 20.0266 18.7465 20.0266 20.9598C20.0266 23.1865 18.2266 24.9865 16 24.9865ZM9.79996 12.5865C9.69329 12.5865 9.59996 12.5865 9.49329 12.5865V11.0398C9.49329 7.13317 10.6 4.53317 16 4.53317C21.4 4.53317 22.5066 7.13317 22.5066 11.0398V12.5998C22.4 12.5998 22.3066 12.5998 22.2 12.5998H9.79996V12.5865Z" fill="#077AB2"/>
</svg>
