<svg width="25" height="36" viewBox="0 0 25 36" fill="none" xmlns="http://www.w3.org/2000/svg">
<path d="M1.25 0C1.58152 0 1.89946 0.131696 2.13388 0.366117C2.3683 0.600537 2.5 0.918479 2.5 1.25V4.33333L5.36667 3.76C8.11804 3.21175 10.9694 3.47343 13.575 4.51333L13.915 4.64833C16.5165 5.68914 19.3798 5.88392 22.0983 5.205C22.3932 5.1313 22.7009 5.12576 22.9982 5.18881C23.2955 5.25185 23.5745 5.38181 23.8141 5.56882C24.0536 5.75583 24.2474 5.99498 24.3807 6.26809C24.514 6.5412 24.5833 6.8411 24.5833 7.145V19.4233C24.5833 20.4967 23.8517 21.4333 22.81 21.6933L22.4533 21.7817C19.5042 22.5189 16.3977 22.3084 13.575 21.18C10.9699 20.1404 8.11917 19.8787 5.36833 20.4267L2.5 21V34.5833C2.5 34.9149 2.3683 35.2328 2.13388 35.4672C1.89946 35.7016 1.58152 35.8333 1.25 35.8333C0.918479 35.8333 0.600537 35.7016 0.366116 35.4672C0.131696 35.2328 0 34.9149 0 34.5833V1.25C0 0.918479 0.131696 0.600537 0.366116 0.366117C0.600537 0.131696 0.918479 0 1.25 0Z" fill="#088BCC"/>
</svg>
