<svg width="1440" height="472" viewBox="0 0 1440 472" fill="none" xmlns="http://www.w3.org/2000/svg">
<path d="M1501.57 -133C1361.08 -111.747 1140.81 -68.7368 1252.87 67.036C1395.47 239.816 1743.95 194.553 1589.18 327.91" stroke="url(#paint0_linear_391_3296)" stroke-width="2"/>
<path d="M1462.35 -101.639C1321.86 -80.3858 1101.59 -37.3755 1213.65 98.3974C1356.25 271.178 1704.73 225.914 1549.96 359.272" stroke="url(#paint1_linear_391_3296)" stroke-width="2"/>
<path d="M1421.27 -72.7606C1280.78 -51.5078 1060.5 -8.49738 1172.56 127.275C1315.17 300.056 1663.65 254.792 1508.88 388.15" stroke="url(#paint2_linear_391_3296)" stroke-width="2"/>
<path d="M1378.12 -47.0685C1237.63 -25.8157 1017.36 17.1947 1129.42 152.968C1272.02 325.748 1620.5 280.484 1465.73 413.842" stroke="url(#paint3_linear_391_3296)" stroke-width="2"/>
<path d="M1332.82 -25.3962C1192.33 -4.14337 972.058 38.867 1084.12 174.64C1226.72 347.42 1575.2 302.157 1420.43 435.514" stroke="url(#paint4_linear_391_3296)" stroke-width="2"/>
<path d="M1285.51 -8.58413C1145.01 12.6687 924.739 55.6791 1036.8 191.452C1179.4 364.232 1527.89 318.969 1373.11 452.326" stroke="url(#paint5_linear_391_3296)" stroke-width="2"/>
<path d="M1236.59 2.77463C1096.1 24.0274 875.824 67.0378 987.885 202.811C1130.49 375.591 1478.97 330.327 1324.2 463.685" stroke="url(#paint6_linear_391_3296)" stroke-width="2"/>
<path d="M1186.72 8.62648C1046.22 29.8793 825.949 72.8897 938.01 208.662C1080.61 381.443 1429.1 336.179 1274.32 469.537" stroke="url(#paint7_linear_391_3296)" stroke-width="2"/>
<path d="M1136.51 9.55296C996.014 30.8058 775.742 73.8161 887.803 209.589C1030.41 382.369 1378.89 337.106 1224.12 470.463" stroke="url(#paint8_linear_391_3296)" stroke-width="2"/>
<path d="M1086.38 6.57762C945.885 27.8304 725.613 70.8408 837.674 206.614C980.278 379.394 1328.76 334.13 1173.99 467.488" stroke="url(#paint9_linear_391_3296)" stroke-width="2"/>
<path d="M1036.49 0.852615C895.995 22.1054 675.724 65.1158 787.784 200.889C930.389 373.669 1278.87 328.405 1124.1 461.763" stroke="url(#paint10_linear_391_3296)" stroke-width="2"/>
<path d="M986.825 -6.563C846.329 14.6898 626.058 57.7002 738.118 193.473C880.723 366.253 1229.2 320.99 1074.43 454.347" stroke="url(#paint11_linear_391_3296)" stroke-width="2"/>
<path d="M937.288 -14.7969C796.792 6.45594 576.521 49.4663 688.581 185.239C831.186 358.02 1179.67 312.756 1024.9 446.113" stroke="url(#paint12_linear_391_3296)" stroke-width="2"/>
<path d="M887.774 -23.169C747.278 -1.91618 527.007 41.0942 639.067 176.867C781.672 349.647 1130.15 304.384 975.381 437.741" stroke="url(#paint13_linear_391_3296)" stroke-width="2"/>
<path d="M838.199 -31.1669C697.703 -9.91408 477.432 33.0963 589.492 168.869C732.097 341.65 1080.58 296.386 925.806 429.743" stroke="url(#paint14_linear_391_3296)" stroke-width="2"/>
<path d="M788.508 -38.4151C648.012 -17.1623 427.741 25.8481 539.801 161.621C682.406 334.401 1030.89 289.138 876.115 422.495" stroke="url(#paint15_linear_391_3296)" stroke-width="2"/>
<path d="M738.679 -44.6462C598.183 -23.3934 377.912 19.617 489.973 155.39C632.577 328.17 981.059 282.907 826.286 416.264" stroke="url(#paint16_linear_391_3296)" stroke-width="2"/>
<path d="M688.715 -49.6789C548.219 -28.4261 327.948 14.5843 440.008 150.357C582.613 323.138 931.094 277.874 776.322 411.231" stroke="url(#paint17_linear_391_3296)" stroke-width="2"/>
<path d="M638.328 -53.4457C497.832 -32.1928 277.561 10.8175 389.621 146.59C532.226 319.371 880.707 274.107 725.935 407.465" stroke="url(#paint18_linear_391_3296)" stroke-width="2"/>
<path d="M588.194 -56.3448C447.699 -35.092 227.427 7.91834 339.488 143.691C482.092 316.472 830.574 271.208 675.801 404.565" stroke="url(#paint19_linear_391_3296)" stroke-width="2"/>
<path d="M538.025 -58.5197C397.529 -37.2669 177.258 5.74346 289.318 141.516C431.923 314.297 780.404 269.033 625.632 402.39" stroke="url(#paint20_linear_391_3296)" stroke-width="2"/>
<path d="M487.826 -59.8709C347.33 -38.6181 127.059 4.39228 239.119 140.165C381.724 312.946 730.206 267.682 575.433 401.039" stroke="url(#paint21_linear_391_3296)" stroke-width="2"/>
<path d="M437.612 -60.2737C297.116 -39.0209 76.8447 3.98944 188.905 139.762C331.51 312.543 679.991 267.279 525.219 400.636" stroke="url(#paint22_linear_391_3296)" stroke-width="2"/>
<path d="M387.4 -59.5692C246.904 -38.3164 26.6328 4.69395 138.693 140.467C281.298 313.247 629.779 267.984 475.007 401.341" stroke="url(#paint23_linear_391_3296)" stroke-width="2"/>
<path d="M337.224 -57.5482C196.728 -36.2954 -23.543 6.71495 88.5174 142.488C231.122 315.268 579.604 270.005 424.831 403.362" stroke="url(#paint24_linear_391_3296)" stroke-width="2"/>
<path d="M287.138 -53.9277C146.642 -32.6749 -73.6294 10.3354 38.431 146.108C181.036 318.889 529.517 273.625 374.745 406.982" stroke="url(#paint25_linear_391_3296)" stroke-width="2"/>
<path d="M237.235 -48.3106C96.7396 -27.0578 -123.532 15.9526 -11.4713 151.725C131.133 324.506 479.615 279.242 324.842 412.6" stroke="url(#paint26_linear_391_3296)" stroke-width="2"/>
<path d="M187.688 -40.1237C47.1923 -18.8709 -173.079 24.1395 -61.0187 159.912C81.5861 332.693 430.067 287.429 275.295 420.787" stroke="url(#paint27_linear_391_3296)" stroke-width="2"/>
<path d="M138.837 -28.5488C-1.65832 -7.29599 -221.93 35.7144 -109.869 171.487C32.7355 344.268 381.217 299.004 226.444 432.361" stroke="url(#paint28_linear_391_3296)" stroke-width="2"/>
<path d="M91.4175 -13.1094C-49.0782 8.14341 -269.35 51.1538 -157.289 186.927C-14.6844 359.707 333.797 314.443 179.025 447.801" stroke="url(#paint29_linear_391_3296)" stroke-width="2"/>
<defs>
<linearGradient id="paint0_linear_391_3296" x1="1222.16" y1="97.4551" x2="1628" y2="97.4551" gradientUnits="userSpaceOnUse">
<stop stop-color="#077AB2" stop-opacity="0.08"/>
<stop offset="1" stop-color="#077AB2" stop-opacity="0"/>
</linearGradient>
<linearGradient id="paint1_linear_391_3296" x1="1182.94" y1="128.816" x2="1588.78" y2="128.816" gradientUnits="userSpaceOnUse">
<stop stop-color="#077AB2" stop-opacity="0.08"/>
<stop offset="1" stop-color="#077AB2" stop-opacity="0"/>
</linearGradient>
<linearGradient id="paint2_linear_391_3296" x1="1141.85" y1="157.695" x2="1547.7" y2="157.695" gradientUnits="userSpaceOnUse">
<stop stop-color="#077AB2" stop-opacity="0.08"/>
<stop offset="1" stop-color="#077AB2" stop-opacity="0"/>
</linearGradient>
<linearGradient id="paint3_linear_391_3296" x1="1098.71" y1="183.387" x2="1504.55" y2="183.387" gradientUnits="userSpaceOnUse">
<stop stop-color="#077AB2" stop-opacity="0.08"/>
<stop offset="1" stop-color="#077AB2" stop-opacity="0"/>
</linearGradient>
<linearGradient id="paint4_linear_391_3296" x1="1053.41" y1="205.059" x2="1459.25" y2="205.059" gradientUnits="userSpaceOnUse">
<stop stop-color="#077AB2" stop-opacity="0.08"/>
<stop offset="1" stop-color="#077AB2" stop-opacity="0"/>
</linearGradient>
<linearGradient id="paint5_linear_391_3296" x1="1006.09" y1="221.871" x2="1411.93" y2="221.871" gradientUnits="userSpaceOnUse">
<stop stop-color="#077AB2" stop-opacity="0.08"/>
<stop offset="1" stop-color="#077AB2" stop-opacity="0"/>
</linearGradient>
<linearGradient id="paint6_linear_391_3296" x1="957.174" y1="233.23" x2="1363.02" y2="233.23" gradientUnits="userSpaceOnUse">
<stop stop-color="#077AB2" stop-opacity="0.08"/>
<stop offset="1" stop-color="#077AB2" stop-opacity="0"/>
</linearGradient>
<linearGradient id="paint7_linear_391_3296" x1="907.299" y1="239.082" x2="1313.14" y2="239.082" gradientUnits="userSpaceOnUse">
<stop stop-color="#077AB2" stop-opacity="0.08"/>
<stop offset="1" stop-color="#077AB2" stop-opacity="0"/>
</linearGradient>
<linearGradient id="paint8_linear_391_3296" x1="857.092" y1="240.008" x2="1262.94" y2="240.008" gradientUnits="userSpaceOnUse">
<stop stop-color="#077AB2" stop-opacity="0.08"/>
<stop offset="1" stop-color="#077AB2" stop-opacity="0"/>
</linearGradient>
<linearGradient id="paint9_linear_391_3296" x1="806.963" y1="237.033" x2="1212.81" y2="237.033" gradientUnits="userSpaceOnUse">
<stop stop-color="#077AB2" stop-opacity="0.08"/>
<stop offset="1" stop-color="#077AB2" stop-opacity="0"/>
</linearGradient>
<linearGradient id="paint10_linear_391_3296" x1="757.073" y1="231.308" x2="1162.92" y2="231.308" gradientUnits="userSpaceOnUse">
<stop stop-color="#077AB2" stop-opacity="0.08"/>
<stop offset="1" stop-color="#077AB2" stop-opacity="0"/>
</linearGradient>
<linearGradient id="paint11_linear_391_3296" x1="707.407" y1="223.892" x2="1113.25" y2="223.892" gradientUnits="userSpaceOnUse">
<stop stop-color="#077AB2" stop-opacity="0.08"/>
<stop offset="1" stop-color="#077AB2" stop-opacity="0"/>
</linearGradient>
<linearGradient id="paint12_linear_391_3296" x1="657.871" y1="215.658" x2="1063.71" y2="215.658" gradientUnits="userSpaceOnUse">
<stop stop-color="#077AB2" stop-opacity="0.08"/>
<stop offset="1" stop-color="#077AB2" stop-opacity="0"/>
</linearGradient>
<linearGradient id="paint13_linear_391_3296" x1="608.356" y1="207.286" x2="1014.2" y2="207.286" gradientUnits="userSpaceOnUse">
<stop stop-color="#077AB2" stop-opacity="0.08"/>
<stop offset="1" stop-color="#077AB2" stop-opacity="0"/>
</linearGradient>
<linearGradient id="paint14_linear_391_3296" x1="558.781" y1="199.288" x2="964.626" y2="199.288" gradientUnits="userSpaceOnUse">
<stop stop-color="#077AB2" stop-opacity="0.08"/>
<stop offset="1" stop-color="#077AB2" stop-opacity="0"/>
</linearGradient>
<linearGradient id="paint15_linear_391_3296" x1="509.09" y1="192.04" x2="914.935" y2="192.04" gradientUnits="userSpaceOnUse">
<stop stop-color="#077AB2" stop-opacity="0.08"/>
<stop offset="1" stop-color="#077AB2" stop-opacity="0"/>
</linearGradient>
<linearGradient id="paint16_linear_391_3296" x1="459.262" y1="185.809" x2="865.106" y2="185.809" gradientUnits="userSpaceOnUse">
<stop stop-color="#077AB2" stop-opacity="0.08"/>
<stop offset="1" stop-color="#077AB2" stop-opacity="0"/>
</linearGradient>
<linearGradient id="paint17_linear_391_3296" x1="409.297" y1="180.776" x2="815.142" y2="180.776" gradientUnits="userSpaceOnUse">
<stop stop-color="#077AB2" stop-opacity="0.08"/>
<stop offset="1" stop-color="#077AB2" stop-opacity="0"/>
</linearGradient>
<linearGradient id="paint18_linear_391_3296" x1="358.91" y1="177.009" x2="764.754" y2="177.009" gradientUnits="userSpaceOnUse">
<stop stop-color="#077AB2" stop-opacity="0.08"/>
<stop offset="1" stop-color="#077AB2" stop-opacity="0"/>
</linearGradient>
<linearGradient id="paint19_linear_391_3296" x1="308.777" y1="174.11" x2="714.621" y2="174.11" gradientUnits="userSpaceOnUse">
<stop stop-color="#077AB2" stop-opacity="0.08"/>
<stop offset="1" stop-color="#077AB2" stop-opacity="0"/>
</linearGradient>
<linearGradient id="paint20_linear_391_3296" x1="258.607" y1="171.935" x2="664.452" y2="171.935" gradientUnits="userSpaceOnUse">
<stop stop-color="#077AB2" stop-opacity="0.08"/>
<stop offset="1" stop-color="#077AB2" stop-opacity="0"/>
</linearGradient>
<linearGradient id="paint21_linear_391_3296" x1="208.409" y1="170.584" x2="614.253" y2="170.584" gradientUnits="userSpaceOnUse">
<stop stop-color="#077AB2" stop-opacity="0.08"/>
<stop offset="1" stop-color="#077AB2" stop-opacity="0"/>
</linearGradient>
<linearGradient id="paint22_linear_391_3296" x1="158.194" y1="170.181" x2="564.039" y2="170.181" gradientUnits="userSpaceOnUse">
<stop stop-color="#077AB2" stop-opacity="0.08"/>
<stop offset="1" stop-color="#077AB2" stop-opacity="0"/>
</linearGradient>
<linearGradient id="paint23_linear_391_3296" x1="107.982" y1="170.886" x2="513.827" y2="170.886" gradientUnits="userSpaceOnUse">
<stop stop-color="#077AB2" stop-opacity="0.08"/>
<stop offset="1" stop-color="#077AB2" stop-opacity="0"/>
</linearGradient>
<linearGradient id="paint24_linear_391_3296" x1="57.8066" y1="172.907" x2="463.651" y2="172.907" gradientUnits="userSpaceOnUse">
<stop stop-color="#077AB2" stop-opacity="0.08"/>
<stop offset="1" stop-color="#077AB2" stop-opacity="0"/>
</linearGradient>
<linearGradient id="paint25_linear_391_3296" x1="7.72021" y1="176.527" x2="413.565" y2="176.527" gradientUnits="userSpaceOnUse">
<stop stop-color="#077AB2" stop-opacity="0.08"/>
<stop offset="1" stop-color="#077AB2" stop-opacity="0"/>
</linearGradient>
<linearGradient id="paint26_linear_391_3296" x1="-42.1821" y1="182.144" x2="363.662" y2="182.144" gradientUnits="userSpaceOnUse">
<stop stop-color="#077AB2" stop-opacity="0.08"/>
<stop offset="1" stop-color="#077AB2" stop-opacity="0"/>
</linearGradient>
<linearGradient id="paint27_linear_391_3296" x1="-91.7295" y1="190.331" x2="314.115" y2="190.331" gradientUnits="userSpaceOnUse">
<stop stop-color="#077AB2" stop-opacity="0.08"/>
<stop offset="1" stop-color="#077AB2" stop-opacity="0"/>
</linearGradient>
<linearGradient id="paint28_linear_391_3296" x1="-140.58" y1="201.906" x2="265.264" y2="201.906" gradientUnits="userSpaceOnUse">
<stop stop-color="#077AB2" stop-opacity="0.08"/>
<stop offset="1" stop-color="#077AB2" stop-opacity="0"/>
</linearGradient>
<linearGradient id="paint29_linear_391_3296" x1="-188" y1="217.346" x2="217.844" y2="217.346" gradientUnits="userSpaceOnUse">
<stop stop-color="#077AB2" stop-opacity="0.08"/>
<stop offset="1" stop-color="#077AB2" stop-opacity="0"/>
</linearGradient>
</defs>
</svg>
