<svg width="32" height="32" viewBox="0 0 32 32" fill="none" xmlns="http://www.w3.org/2000/svg">
<path d="M21.5867 2.6665H10.4134C5.56002 2.6665 2.66669 5.55984 2.66669 10.4132V21.5732C2.66669 26.4398 5.56002 29.3332 10.4134 29.3332H21.5734C26.4267 29.3332 29.32 26.4398 29.32 21.5865V10.4132C29.3334 5.55984 26.44 2.6665 21.5867 2.6665ZM16 24.3332C13.6134 24.3332 11.7467 23.1465 10.48 21.9732V22.9198C10.48 23.4665 10.0267 23.9198 9.48002 23.9198C8.93335 23.9198 8.48002 23.4665 8.48002 22.9198V19.2532C8.48002 18.7065 8.93335 18.2532 9.48002 18.2532H12.7867C13.3334 18.2532 13.7867 18.7065 13.7867 19.2532C13.7867 19.7998 13.3334 20.2532 12.7867 20.2532H11.5867C12.5734 21.2398 14.1067 22.3332 16 22.3332C19.4934 22.3332 22.3334 19.4932 22.3334 15.9998C22.3334 15.4532 22.7867 14.9998 23.3334 14.9998C23.88 14.9998 24.3334 15.4532 24.3334 15.9998C24.3334 20.5998 20.6 24.3332 16 24.3332ZM24.3334 12.7198C24.3334 12.7598 24.3334 12.7998 24.3334 12.8265C24.32 12.9732 24.28 13.1065 24.2134 13.2265C24.1467 13.3465 24.0534 13.4532 23.9334 13.5465C23.84 13.6132 23.7334 13.6665 23.6134 13.7065C23.52 13.7332 23.4267 13.7465 23.3334 13.7465H20.0934C19.5467 13.7465 19.0934 13.2932 19.0934 12.7465C19.0934 12.1998 19.5467 11.7465 20.0934 11.7465H21.2C20.1334 10.7598 18.4134 9.6665 16.0267 9.6665C12.5334 9.6665 9.69335 12.5065 9.69335 15.9998C9.69335 16.5465 9.24002 16.9998 8.69335 16.9998C8.14669 16.9998 7.66669 16.5465 7.66669 15.9998C7.66669 11.3998 11.4 7.6665 16 7.6665C18.8667 7.6665 20.9734 8.9065 22.3334 10.0932V9.07984C22.3334 8.53317 22.7867 8.07984 23.3334 8.07984C23.88 8.07984 24.3334 8.53317 24.3334 9.07984V12.7198Z" fill="#077AB2"/>
</svg>
