<svg width="40" height="40" viewBox="0 0 40 40" fill="none" xmlns="http://www.w3.org/2000/svg">
<g opacity="0.95">
<path fill-rule="evenodd" clip-rule="evenodd" d="M5.63 8.02558C5 8.92225 5 11.5889 5 16.9172V19.5406C5 28.9372 12.065 33.4989 16.4983 35.4339C17.7 35.9589 18.3017 36.2222 20 36.2222C21.7 36.2222 22.3 35.9589 23.5017 35.4339C27.935 33.4972 35 28.9389 35 19.5406V16.9172C35 11.5872 35 8.92225 34.37 8.02558C33.7417 7.13058 31.2367 6.27225 26.225 4.55725L25.27 4.23058C22.6583 3.33558 21.3533 2.88892 20 2.88892C18.6467 2.88892 17.3417 3.33558 14.73 4.23058L13.775 4.55558C8.76333 6.27225 6.25833 7.13058 5.63 8.02558ZM25.1 17.0556C25.2093 16.933 25.2934 16.7901 25.3475 16.635C25.4016 16.48 25.4247 16.3158 25.4153 16.1518C25.4059 15.9878 25.3644 15.8273 25.293 15.6794C25.2216 15.5315 25.1217 15.3991 24.9992 15.2897C24.8766 15.1804 24.7337 15.0963 24.5786 15.0422C24.4236 14.9881 24.2593 14.9651 24.0954 14.9745C23.9314 14.9838 23.7709 15.0254 23.623 15.0968C23.4751 15.1682 23.3427 15.268 23.2333 15.3906L18.215 21.0139L16.765 19.3906C16.5434 19.1457 16.2339 18.9985 15.9041 18.9811C15.5743 18.9637 15.251 19.0775 15.0048 19.2976C14.7587 19.5178 14.6096 19.8265 14.5903 20.1562C14.571 20.4859 14.6829 20.8098 14.9017 21.0572L17.2817 23.7239C17.3989 23.8553 17.5426 23.9604 17.7033 24.0323C17.864 24.1043 18.0381 24.1415 18.2142 24.1415C18.3902 24.1415 18.5643 24.1043 18.725 24.0323C18.8857 23.9604 19.0294 23.8553 19.1467 23.7239L25.1 17.0556Z" fill="#F9FAFB"/>
</g>
</svg>
