<svg width="40" height="40" viewBox="0 0 40 40" fill="none" xmlns="http://www.w3.org/2000/svg">
<g clip-path="url(#clip0_357_837)">
<path fill-rule="evenodd" clip-rule="evenodd" d="M32.8142 1.08288C32.7532 0.837246 32.6281 0.612213 32.4517 0.4308C32.2752 0.249386 32.0537 0.118104 31.8099 0.0503848C31.566 -0.0173345 31.3086 -0.0190602 31.0638 0.0453842C30.8191 0.109829 30.5959 0.23813 30.417 0.417162L24.7027 6.13145C24.5285 6.30609 24.4024 6.52288 24.3368 6.76071C24.2712 6.99855 24.2683 7.24931 24.3284 7.48859L25.357 11.6143L25.317 11.6543L18.4856 18.4857C18.1071 18.8919 17.901 19.4292 17.9108 19.9844C17.9206 20.5395 18.1455 21.0692 18.5381 21.4618C18.9307 21.8544 19.4604 22.0793 20.0155 22.0891C20.5707 22.0989 21.1079 21.8928 21.5142 21.5143L28.3513 14.6857L28.3913 14.6429L32.5142 15.6743C32.7534 15.7344 33.0042 15.7315 33.242 15.6659C33.4799 15.6004 33.6967 15.4743 33.8713 15.3L39.5856 9.58573C39.7654 9.40693 39.8943 9.18351 39.9592 8.9384C40.0241 8.69329 40.0225 8.43532 39.9548 8.191C39.887 7.94667 39.7554 7.72478 39.5736 7.54812C39.3917 7.37145 39.1661 7.24638 38.9199 7.18573L34.037 5.96859L32.8142 1.08288ZM20.9056 2.16859C20.9448 2.73536 20.7574 3.29452 20.3845 3.72314C20.0116 4.15176 19.4838 4.41476 18.917 4.4543C15.9319 4.66118 13.0689 5.72068 10.6682 7.50692C8.26748 9.29315 6.43005 11.731 5.3742 14.5309C4.31835 17.3307 4.08846 20.3748 4.71187 23.3015C5.33527 26.2281 6.78575 28.9143 8.89095 31.0408C10.9962 33.1673 13.6676 34.6447 16.5878 35.2976C19.508 35.9504 22.5543 35.7512 25.3646 34.7236C28.175 33.696 30.6312 31.8832 32.4415 29.5006C34.2518 27.118 35.3401 24.2658 35.577 21.2829C35.6221 20.7161 35.8905 20.1904 36.3232 19.8215C36.7559 19.4526 37.3174 19.2706 37.8842 19.3157C38.451 19.3608 38.9766 19.6292 39.3456 20.0619C39.7145 20.4946 39.8964 21.0561 39.8513 21.6229C39.5489 25.4235 38.1619 29.0574 35.855 32.093C33.5482 35.1285 30.4184 37.438 26.8376 38.7471C23.2567 40.0563 19.3754 40.3099 15.6546 39.478C11.9338 38.6462 8.53005 36.7637 5.84769 34.0542C3.16532 31.3448 1.3171 27.9223 0.522622 24.1934C-0.271861 20.4644 0.0207847 16.5858 1.36579 13.0183C2.7108 9.45078 5.05163 6.34436 8.11017 4.06807C11.1687 1.79179 14.8164 0.441339 18.6199 0.177162C19.1866 0.137908 19.7458 0.325334 20.1744 0.698234C20.603 1.07113 20.866 1.60184 20.9056 2.16859ZM18.9856 11.5914C19.0883 11.8535 19.1383 12.1333 19.1328 12.4147C19.1274 12.6961 19.0665 12.9737 18.9538 13.2316C18.841 13.4895 18.6785 13.7226 18.4756 13.9177C18.2728 14.1128 18.0334 14.266 17.7713 14.3686C16.8343 14.7361 16.0036 15.3314 15.3544 16.1006C14.7052 16.8698 14.2579 17.7886 14.0529 18.774C13.848 19.7595 13.8918 20.7804 14.1805 21.7447C14.4692 22.7089 14.9936 23.586 15.7064 24.2967C16.4191 25.0074 17.2978 25.5293 18.2628 25.8151C19.2279 26.101 20.249 26.1419 21.2339 25.9341C22.2187 25.7262 23.1362 25.2762 23.9035 24.6248C24.6708 23.9733 25.2636 23.141 25.6284 22.2029C25.7305 21.9406 25.8832 21.701 26.0779 21.4978C26.2725 21.2945 26.5053 21.1316 26.7629 21.0183C27.0205 20.905 27.2979 20.8436 27.5793 20.8375C27.8607 20.8314 28.1405 20.8808 28.4027 20.9829C28.665 21.0849 28.9046 21.2376 29.1078 21.4323C29.3111 21.627 29.474 21.8597 29.5873 22.1173C29.7006 22.375 29.762 22.6524 29.7681 22.9337C29.7742 23.2151 29.7248 23.4949 29.6227 23.7572C28.9996 25.3591 27.987 26.7805 26.6766 27.8928C25.3661 29.0052 23.7991 29.7734 22.1172 30.128C20.4353 30.4826 18.6916 30.4124 17.0436 29.9239C15.3956 29.4353 13.8954 28.5437 12.6785 27.3297C11.4617 26.1157 10.5666 24.6176 10.0741 22.9707C9.5817 21.3239 9.50746 19.5803 9.85812 17.8976C10.2088 16.2148 10.9733 14.646 12.0826 13.333C13.1918 12.0199 14.6108 11.0041 16.2113 10.3772C16.7403 10.1707 17.3295 10.1826 17.8497 10.4103C18.3699 10.638 18.7784 11.0628 18.9856 11.5914Z" fill="#088BCC"/>
</g>
<defs>
<clipPath id="clip0_357_837">
<rect width="40" height="40" fill="white"/>
</clipPath>
</defs>
</svg>
