<svg width="40" height="40" viewBox="0 0 40 40" fill="none" xmlns="http://www.w3.org/2000/svg">
<g opacity="0.95">
<path d="M38 18.3057C38 18.6372 37.8683 18.9551 37.6339 19.1895C37.3995 19.424 37.0815 19.5557 36.75 19.5557H31.75V24.5557H33C33.663 24.5557 34.2989 24.8191 34.7678 25.2879C35.2366 25.7567 35.5 26.3926 35.5 27.0557V32.0557C35.5 32.7187 35.2366 33.3546 34.7678 33.8234C34.2989 34.2923 33.663 34.5557 33 34.5557H28C27.337 34.5557 26.7011 34.2923 26.2322 33.8234C25.7634 33.3546 25.5 32.7187 25.5 32.0557V27.0557C25.5 26.3926 25.7634 25.7567 26.2322 25.2879C26.7011 24.8191 27.337 24.5557 28 24.5557H29.25V19.5557H11.75V24.5557H13C13.663 24.5557 14.2989 24.8191 14.7678 25.2879C15.2366 25.7567 15.5 26.3926 15.5 27.0557V32.0557C15.5 32.7187 15.2366 33.3546 14.7678 33.8234C14.2989 34.2923 13.663 34.5557 13 34.5557H8C7.33696 34.5557 6.70107 34.2923 6.23223 33.8234C5.76339 33.3546 5.5 32.7187 5.5 32.0557V27.0557C5.5 26.3926 5.76339 25.7567 6.23223 25.2879C6.70107 24.8191 7.33696 24.5557 8 24.5557H9.25V19.5557H4.25C3.91848 19.5557 3.60054 19.424 3.36612 19.1895C3.1317 18.9551 3 18.6372 3 18.3057C3 17.9741 3.1317 17.6562 3.36612 17.4218C3.60054 17.1874 3.91848 17.0557 4.25 17.0557H19.25V13.3057H18C17.337 13.3057 16.7011 13.0423 16.2322 12.5734C15.7634 12.1046 15.5 11.4687 15.5 10.8057V5.80566C15.5 5.14262 15.7634 4.50674 16.2322 4.0379C16.7011 3.56906 17.337 3.30566 18 3.30566H23C23.663 3.30566 24.2989 3.56906 24.7678 4.0379C25.2366 4.50674 25.5 5.14262 25.5 5.80566V10.8057C25.5 11.4687 25.2366 12.1046 24.7678 12.5734C24.2989 13.0423 23.663 13.3057 23 13.3057H21.75V17.0557H36.75C37.0815 17.0557 37.3995 17.1874 37.6339 17.4218C37.8683 17.6562 38 17.9741 38 18.3057Z" fill="#F9FAFB"/>
</g>
</svg>
