<svg width="37" height="30" viewBox="0 0 37 30" fill="none" xmlns="http://www.w3.org/2000/svg">
<path d="M36.6667 0.0167595C35.0706 1.14256 33.3035 2.00361 31.4333 2.56676C30.4296 1.41261 29.0956 0.594579 27.6117 0.223303C26.1279 -0.147973 24.5658 -0.0545811 23.1368 0.490848C21.7078 1.03628 20.4807 2.00743 19.6216 3.27295C18.7625 4.53848 18.3128 6.03732 18.3333 7.56676V9.23343C15.4044 9.30937 12.5021 8.65978 9.88502 7.3425C7.26791 6.02522 5.0172 4.08115 3.33333 1.68343C3.33333 1.68343 -3.33333 16.6834 11.6667 23.3501C8.23421 25.68 4.14526 26.8483 0 26.6834C15 35.0168 33.3333 26.6834 33.3333 7.51676C33.3318 7.05252 33.2872 6.58942 33.2 6.13343C34.901 4.45591 36.1014 2.33795 36.6667 0.0167595Z" fill="#077AB2"/>
</svg>
