<svg width="17" height="15" viewBox="0 0 17 15" fill="none" xmlns="http://www.w3.org/2000/svg">
<path d="M15.495 5.995H5.115L8.555 2.555C9.135 1.975 9.135 1.015 8.555 0.435C7.975 -0.145 7.015 -0.145 6.435 0.435L0.435 6.435C-0.145 7.015 -0.145 7.975 0.435 8.555L6.435 14.555C6.735 14.855 7.115 14.995 7.495 14.995C7.875 14.995 8.255 14.855 8.555 14.555C9.135 13.975 9.135 13.015 8.555 12.435L5.115 8.995H15.495C16.315 8.995 16.995 8.315 16.995 7.495C16.995 6.675 16.315 5.995 15.495 5.995Z" fill="#077AB2"/>
</svg>
