<svg width="17" height="15" viewBox="0 0 17 15" fill="none" xmlns="http://www.w3.org/2000/svg">
<path d="M1.49999 5.995H11.88L8.43999 2.555C7.85999 1.975 7.85999 1.015 8.43999 0.435C9.01999 -0.145 9.97999 -0.145 10.56 0.435L16.56 6.435C17.14 7.015 17.14 7.975 16.56 8.555L10.56 14.555C10.26 14.855 9.87999 14.995 9.49999 14.995C9.11999 14.995 8.73999 14.855 8.43999 14.555C7.85999 13.975 7.85999 13.015 8.43999 12.435L11.88 8.995H1.49999C0.679994 8.995 -5.72205e-06 8.315 -5.72205e-06 7.495C-5.72205e-06 6.675 0.679994 5.995 1.49999 5.995Z" fill="#077AB2"/>
</svg>
