<svg width="40" height="40" viewBox="0 0 40 40" fill="none" xmlns="http://www.w3.org/2000/svg">
<path d="M36.6333 19.0166C36.0666 9.34992 27.2833 1.89994 17.1666 3.5666C10.2 4.7166 4.61665 10.3666 3.53331 17.3332C2.89998 21.3666 3.73335 25.1832 5.55002 28.3332L4.06666 33.8499C3.73332 35.0999 4.88329 36.2332 6.11663 35.8832L11.55 34.3833C14.0166 35.8333 16.9 36.6666 19.9833 36.6666C29.3833 36.6666 37.1833 28.3833 36.6333 19.0166ZM28.1333 26.1999C27.9833 26.4999 27.8 26.7833 27.5666 27.0499C27.15 27.4999 26.6999 27.8333 26.1999 28.0333C25.6999 28.2499 25.15 28.3499 24.5666 28.3499C23.7166 28.3499 22.8 28.1499 21.85 27.7333C20.8833 27.3166 19.9333 26.7666 18.9833 26.0832C18.0167 25.3832 17.1167 24.5999 16.25 23.7499C15.3833 22.8832 14.6166 21.9666 13.9166 21.0166C13.2333 20.0666 12.6833 19.1166 12.2833 18.1666C11.8833 17.2166 11.6833 16.2999 11.6833 15.4333C11.6833 14.8666 11.7833 14.3166 11.9833 13.8166C12.1833 13.2999 12.5 12.8333 12.95 12.4166C13.4834 11.8833 14.0666 11.6333 14.6833 11.6333C14.9166 11.6333 15.1499 11.6833 15.3666 11.7833C15.5833 11.8833 15.7833 12.0333 15.9333 12.2499L17.8666 14.9832C18.0166 15.1999 18.1333 15.3832 18.2 15.5666C18.2833 15.7499 18.3166 15.9166 18.3166 16.0832C18.3166 16.2832 18.25 16.4833 18.1333 16.6833C18.0167 16.8833 17.8666 17.0832 17.6666 17.2832L17.0333 17.9499C16.9333 18.0499 16.9 18.1499 16.9 18.2832C16.9 18.3499 16.9166 18.4166 16.9333 18.4832C16.9666 18.5499 16.9833 18.5999 17 18.6499C17.15 18.9332 17.4166 19.2832 17.7833 19.7166C18.1666 20.1499 18.5667 20.5999 19 21.0332C19.45 21.4832 19.8833 21.8832 20.3333 22.2666C20.7667 22.6332 21.1333 22.8833 21.4166 23.0333C21.4666 23.0499 21.5167 23.0832 21.5667 23.0999C21.6333 23.1332 21.7 23.1333 21.7833 23.1333C21.9333 23.1333 22.0334 23.0833 22.1334 22.9833L22.7666 22.3499C22.9833 22.1333 23.1834 21.9833 23.3667 21.8833C23.5667 21.7666 23.75 21.6999 23.9667 21.6999C24.1333 21.6999 24.3 21.7332 24.4833 21.8166C24.6667 21.8999 24.8666 21.9999 25.0666 22.1499L27.8333 24.1166C28.05 24.2666 28.2 24.4499 28.3 24.6499C28.3833 24.8666 28.4333 25.0666 28.4333 25.2999C28.3333 25.5832 28.2667 25.8999 28.1333 26.1999Z" fill="#077AB2"/>
</svg>
